<svg class="svg-icon" style="width: 1em; height: 1em;vertical-align: middle;fill: currentColor;overflow: hidden;" viewBox="0 0 1024 1024" version="1.1" xmlns="http://www.w3.org/2000/svg"><path d="M945.152 174.592c0-19.456-15.872-35.328-35.328-35.84L870.4 138.24c-2.56 0-83.968-2.56-166.912-36.352-87.552-35.84-144.384-76.288-146.432-77.312l-23.552-17.408c-12.8-9.216-29.696-9.216-41.984 0l-23.552 16.896c-0.512 0.512-58.368 41.984-146.432 77.824C238.592 135.68 156.672 138.24 154.624 138.24h-40.448c-19.456 0.512-35.328 16.384-35.328 35.84v400.384c0 100.352 57.344 212.48 157.696 308.224C327.68 969.728 433.152 1024 512 1024c78.848 0 184.32-54.272 275.456-141.312 100.352-95.744 157.696-207.872 157.696-308.224V174.592z m-207.36 656.384C662.016 903.168 570.88 952.32 512 952.32s-150.016-48.64-225.792-121.344c-86.016-81.92-135.168-175.616-135.168-256V209.92h4.096c8.192 0 99.328-3.584 193.024-41.472C443.904 129.024 506.88 83.968 509.44 81.92l2.56-2.048 2.56 2.048c7.68 5.632 68.608 48.128 161.792 86.016 93.696 37.888 184.832 41.472 193.024 41.472h4.096v365.056c0 80.896-49.664 174.08-135.68 256.512z"  /><path d="M669.184 352.256l-204.8 204.8L377.856 471.04c-17.92-17.92-46.592-17.92-64.512 0s-17.92 46.592 0 64.512l118.272 118.272c8.704 8.704 19.968 13.312 32.256 13.312s23.552-4.608 32.256-13.312l237.056-237.056c17.92-17.92 17.92-46.592 0-64.512-17.408-17.92-46.08-17.92-64 0z"  /></svg>